<!DOCTYPE svg PUBLIC "-//W3C//DTD SVG 1.1//EN" "http://www.w3.org/Graphics/SVG/1.1/DTD/svg11.dtd">

<!-- Uploaded to: SVG Repo, www.svgrepo.com, Transformed by: SVG Repo Mixer Tools -->
<svg height="800px" width="800px" version="1.1" id="_x32_" xmlns="http://www.w3.org/2000/svg" xmlns:xlink="http://www.w3.org/1999/xlink" viewBox="0 0 512 512" xml:space="preserve" fill="#ffffff" stroke="#ffffff">

<g id="SVGRepo_bgCarrier" stroke-width="0"/>

<g id="SVGRepo_tracerCarrier" stroke-linecap="round" stroke-linejoin="round"/>

<g id="SVGRepo_iconCarrier"> <style type="text/css"> .st0{fill:"";} </style> <g> <path class="st0" d="M156.47,294.209c-6.287,6.279-6.287,16.464,0,22.744c6.272,6.287,16.464,6.287,22.744,0 c6.279-6.28,6.279-16.464,0-22.744C172.934,287.921,162.742,287.921,156.47,294.209z"/> <path class="st0" d="M152.196,366.722c-4.704,4.711-4.704,12.352,0,17.063c4.712,4.712,12.352,4.712,17.064,0 c4.712-4.711,4.712-12.352,0-17.063C164.549,362.009,156.908,362.009,152.196,366.722z"/> <path class="st0" d="M201.089,345.953c-3.228,3.228-3.228,8.486,0,11.729c3.244,3.236,8.501,3.236,11.738,0 c3.236-3.244,3.236-8.501,0-11.729C209.59,342.709,204.333,342.709,201.089,345.953z"/> <path class="st0" d="M108.776,336.206c-3.85,3.844-3.85,10.085,0,13.935c3.851,3.844,10.085,3.844,13.935,0 c3.851-3.85,3.851-10.092,0-13.935C118.861,332.363,112.628,332.363,108.776,336.206z"/> <path class="st0" d="M133.027,407.274c-4.712,4.704-4.712,12.345,0,17.056c4.704,4.712,12.344,4.712,17.064,0 c4.704-4.711,4.712-12.36,0-17.056C145.371,402.555,137.731,402.555,133.027,407.274z"/> <path class="st0" d="M79.507,377.92c-5.596,5.588-5.596,14.674,0,20.261c5.588,5.596,14.666,5.596,20.261,0 c5.588-5.595,5.588-14.672,0-20.269C94.173,372.325,85.103,372.325,79.507,377.92z"/> <path class="st0" d="M177.4,30.684l-0.085-0.038c0.008,0,0.008,0,0.016,0.008L177.4,30.684z"/> <path class="st0" d="M500.739,134.395h0.008c-0.015-0.016-0.131-0.138-0.384-0.346c-3.828-3.735-8.255-6.548-12.975-8.432 l7.572-7.586c7.532-7.525,11.314-17.472,11.284-27.31c0-9.769-3.751-19.577-11.13-27.056l0.015-0.007 c-0.007,0-0.061-0.062-0.145-0.146h0.008c-0.024-0.015-0.154-0.169-0.423-0.384c-5.78-5.634-12.92-9.101-20.354-10.392 c0.392-2.198,0.6-4.435,0.6-6.68c0.008-9.761-3.705-19.608-11.099-27.101c-0.015-0.016-0.054-0.062-0.123-0.131l-0.046-0.046 c0-0.008-0.008-0.008-0.008-0.015c0,0,0,0-0.008,0c0,0-0.008,0-0.008-0.008c-0.023-0.023-0.031-0.039-0.076-0.069 c-7.51-7.471-17.394-11.237-27.194-11.23h-0.038c-9.838-0.007-19.754,3.798-27.248,11.291l-7.464,7.471 c-1.806-3.874-4.273-7.517-7.432-10.715c0-0.008-0.054-0.053-0.139-0.146c-0.008,0-0.008-0.016-0.015-0.024 c-0.016-0.015-0.092-0.092-0.261-0.246v0.007c-7.487-7.363-17.31-11.106-27.049-11.098c-9.838-0.016-19.746,3.774-27.255,11.276 c0,0-83.981,83.796-113.373,113.189c-1.438,1.437-2.744,2.736-3.904,3.904c-0.062-0.246-0.139-0.477-0.208-0.73 c-0.676-2.437-1.361-5.311-2.037-8.462l-0.008-0.008c-2.075-9.485-4.166-21.552-7.163-33.858l0.023,0.076l-0.046-0.176 l-0.007-0.046c-3.021-12.268-6.887-24.873-13.175-35.98v-0.008l-0.061-0.138l-0.076-0.131c-3.06-5.343-6.488-9.946-10.3-13.767 c-3.552-3.558-7.464-6.433-11.699-8.493c-6.372-3.113-13.466-4.212-20.276-2.905c-6.772,1.261-12.814,4.75-17.617,9.562 l-0.054,0.046c-6.249,6.279-10.6,14.704-13.106,24.519v0.008c-2.498,9.824-3.174,21.183-1.714,33.835v0.054l0.008,0.015v0.054 c4.95,43.012,3.359,84.403-3.282,118.454c-3.313,17.025-7.886,32.213-13.397,44.78v0.016c-5.472,12.529-11.922,22.421-18.54,29.03 L89.3,288.16l-0.008,0.008L0,377.451l130.552,130.552l80.914-80.905c3.167-3.152,6.019-5.366,8.893-7.156 c2.521-1.568,5.058-2.798,7.871-3.935l0.123-0.046l-0.115,0.038c4.896-1.968,10.784-3.582,17.947-5.788 c10.784-3.305,24.204-8.055,40.476-17.947c16.295-9.877,35.504-24.781,59.154-48.431l154.88-154.879 c7.532-7.524,11.322-17.463,11.306-27.309C512.008,151.812,508.234,141.897,500.739,134.395z M486.766,175.017L331.887,329.896 c-19.877,19.87-36.08,32.921-49.599,41.814c-10.146,6.68-18.755,11.022-26.41,14.19c-11.468,4.758-20.853,6.84-30.284,10.077 c-4.704,1.614-9.392,3.55-14.081,6.279c-4.688,2.737-9.34,6.256-13.982,10.907l-66.979,66.971L27.878,377.451l75.356-75.356 c8.962-8.978,16.472-20.922,22.706-35.127c9.316-21.314,15.741-47.793,18.938-77.408c3.198-29.608,3.129-62.344-0.745-96.041 v-0.008c-1.237-10.629-0.576-19.661,1.23-26.779c1.806-7.133,4.781-12.306,7.947-15.457c1.63-1.621,3.282-2.736,4.919-3.428 c2.46-1.022,4.85-1.23,7.602-0.538c2.744,0.7,5.91,2.437,9.239,5.764c2.374,2.376,4.811,5.558,7.14,9.624l0.008,0.023 c3.697,6.449,6.687,14.458,9.116,22.99c3.674,12.828,6.118,26.779,8.601,38.7c1.245,5.972,2.506,11.437,4.042,16.18 c0.769,2.374,1.606,4.573,2.637,6.626c1.03,2.037,2.229,3.95,3.936,5.68c1.106,1.091,2.452,2.121,4.074,2.844 c1.207,0.546,2.567,0.907,3.943,1.007c2.075,0.177,4.104-0.215,5.88-0.93c1.792-0.7,3.367-1.684,4.866-2.867l0.384-0.3l0.346-0.361 c0.031-0.031,0.368-0.369,0.853-0.861c1.491-1.491,4.65-4.665,9.016-9.031c14.689-14.688,43.028-42.99,67.7-67.601 c12.329-12.313,23.743-23.704,32.083-32.021c4.158-4.159,7.556-7.548,9.916-9.893c2.352-2.352,3.658-3.658,3.666-3.666 c3.697-3.69,8.47-5.503,13.32-5.511c4.842,0.008,9.631,1.829,13.351,5.542c3.674,3.69,5.426,8.371,5.403,13.151 c-0.038,4.381-1.614,8.732-4.743,12.306l-73.542,73.534l10.138,10.138l72.612-72.613l0.054,0.046 c0.315-0.322,0.584-0.661,0.884-0.984l32.136-32.136c3.697-3.689,8.478-5.511,13.335-5.526c4.858,0.007,9.646,1.821,13.375,5.542 c3.681,3.681,5.503,8.47,5.503,13.336c-0.016,4.866-1.837,9.669-5.511,13.343L339.412,169.567l10.138,10.131L453.092,76.163 l1.214,1.215c3.705-3.705,8.486-5.518,13.343-5.518c4.858,0.007,9.639,1.837,13.359,5.534c3.682,3.689,5.511,8.493,5.527,13.351 c0,4.865-1.814,9.654-5.511,13.358l-106.847,106.84l10.138,10.13l74.258-74.25l0.722,0.722c1.798-1.791,3.882-3.098,6.187-3.966 c3.444-1.3,7.387-1.553,11.169-0.738c3.774,0.808,7.34,2.66,10.115,5.442c3.69,3.698,5.519,8.493,5.527,13.359 C492.284,166.509,490.463,171.304,486.766,175.017z"/> <polygon class="st0" points="474.814,46.049 474.814,46.056 474.814,46.064 "/> </g> </g>

</svg>