<!DOCTYPE svg PUBLIC "-//W3C//DTD SVG 1.1//EN" "http://www.w3.org/Graphics/SVG/1.1/DTD/svg11.dtd">

<!-- Uploaded to: SVG Repo, www.svgrepo.com, Transformed by: SVG Repo Mixer Tools -->
<svg fill="" height="64px" width="64px" version="1.1" id="Layer_1" xmlns="http://www.w3.org/2000/svg" xmlns:xlink="http://www.w3.org/1999/xlink" viewBox="0 0 496 496" xml:space="preserve" stroke="#fffafa">

<g id="SVGRepo_bgCarrier" stroke-width="0"/>

<g id="SVGRepo_tracerCarrier" stroke-linecap="round" stroke-linejoin="round"/>

<g id="SVGRepo_iconCarrier"> <g> <g> <g> <path d="M440,464c13.232,0,24-10.768,24-24s-10.768-24-24-24s-24,10.768-24,24S426.768,464,440,464z M440,432 c4.416,0,8,3.584,8,8c0,4.416-3.584,8-8,8c-4.416,0-8-3.584-8-8C432,435.584,435.584,432,440,432z"/> <path d="M440,304h56v-96c0-35.288-28.712-64-64-64h-10.84C437.504,130.792,448,110.608,448,88V56c0-30.872-25.128-56-56-56h-32 c-30.872,0-56,25.128-56,56v32c0,22.608,10.496,42.792,26.84,56H320c-35.288,0-64,28.712-64,64v69.152 C245.536,268.632,232.584,264,218.912,264C186.432,264,160,290.432,160,322.912c0,15.736,6.128,30.528,17.256,41.656 l57.656,57.656c3.08,3.08,6.344,5.896,9.776,8.456c-4.512,0.872-9.136,1.32-13.832,1.32H192c-39.704,0-72-32.296-72-72V215.592 c58.024-4.128,104-52.536,104-111.592V40c0-13.232-10.768-24-24-24h-9.472C187.216,6.712,178.416,0,168,0h-40v48h40 c10.416,0,19.216-6.712,22.528-16H200c4.416,0,8,3.584,8,8v64c0,52.936-43.064,96-96,96c-52.936,0-96-43.064-96-96V40 c0-4.416,3.584-8,8-8h9.472C36.784,41.288,45.584,48,56,48h40V0H56C45.584,0,36.784,6.712,33.472,16H24C10.768,16,0,26.768,0,40 v64c0,59.056,45.976,107.464,104,111.592V360c0,48.52,39.48,88,88,88h38.856c11.544,0,22.76-2.208,33.144-6.432 c10.384,4.224,21.592,6.432,33.144,6.432h87.496c3.904,27.088,27.208,48,55.36,48c30.872,0,56-25.128,56-56s-25.128-56-56-56 c-28.152,0-51.456,20.912-55.36,48h-87.496c-4.696,0-9.32-0.448-13.832-1.32c3.432-2.552,6.696-5.376,9.776-8.456l57.656-57.656 c11.128-11.12,17.256-25.92,17.256-41.656c0-6.624-1.152-12.968-3.176-18.912H432H440z M168,32h-24V16h24c4.416,0,8,3.584,8,8 S172.416,32,168,32z M56,16h24v16H56c-4.416,0-8-3.584-8-8S51.584,16,56,16z M440,400c22.056,0,40,17.944,40,40 c0,22.056-17.944,40-40,40c-22.056,0-40-17.944-40-40C400,417.944,417.944,400,440,400z M480,288h-32v-32h32V288z M422.584,179.328l-32.464,13.92L412.28,160h5.472L422.584,179.328z M376,185.576l-18.76-28.144 C363.232,159.056,369.504,160,376,160c6.496,0,12.768-0.944,18.76-2.568L376,185.576z M320,56c0-22.056,17.944-40,40-40h32 c22.056,0,40,17.944,40,40v15.072c-9.168-2.04-17.32-7.48-22.656-15.48L401.24,43.44l-17.768,17.768 C376.512,68.168,367.264,72,357.424,72H320V56z M320,88h37.424c14.12,0,27.392-5.504,37.368-15.48l4.128-4.128 c8.304,10.272,20.112,16.936,33.088,18.92V88c0,30.872-25.128,56-56,56C345.128,144,320,118.872,320,88z M334.24,160h5.472 l22.168,33.248l-32.472-13.92L334.24,160z M272,256h32v8.248c-11.784,1-22.848,5.448-32,12.904V256z M339.432,353.256 l-57.656,57.656c-5.304,5.304-11.296,9.68-17.776,13.048c-6.48-3.368-12.472-7.744-17.776-13.048l-57.656-57.656 C180.576,345.264,176,334.208,176,322.912C176,299.248,195.248,280,218.912,280c11.296,0,22.352,4.576,30.344,12.568L264,307.312 l14.744-14.744c7.992-7.992,19.048-12.568,30.344-12.568C332.752,280,352,299.248,352,322.912 C352,334.208,347.424,345.264,339.432,353.256z M356.432,288c-8.672-11.728-21.552-20.144-36.432-22.944V208h-16v32h-32v-32 c0-25.704,20.32-46.688,45.728-47.888l-7.144,28.56L376,216.704l65.416-28.032l-7.144-28.56C459.68,161.312,480,182.296,480,208 v32h-32v-32h-16v80H356.432z"/> </g> </g> </g> </g>

</svg>