<!DOCTYPE svg PUBLIC "-//W3C//DTD SVG 1.1//EN" "http://www.w3.org/Graphics/SVG/1.1/DTD/svg11.dtd">

<!-- Uploaded to: SVG Repo, www.svgrepo.com, Transformed by: SVG Repo Mixer Tools -->
<svg fill="" version="1.1" id="Layer_1" xmlns="http://www.w3.org/2000/svg" xmlns:xlink="http://www.w3.org/1999/xlink" viewBox="0 0 512.001 512.001" xml:space="preserve" width="800px" height="800px" stroke="#ffffff">

<g id="SVGRepo_bgCarrier" stroke-width="0"/>

<g id="SVGRepo_tracerCarrier" stroke-linecap="round" stroke-linejoin="round"/>

<g id="SVGRepo_iconCarrier"> <g> <g> <rect x="106.017" y="159.533" width="179.701" height="33.391"/> </g> </g> <g> <g> <rect x="106.017" y="79.772" width="179.701" height="33.391"/> </g> </g> <g> <g> <path d="M486.118,253.418c-13.781-17.484-32.401-27.936-54.213-30.872c10.625-23.093,9.304-47.608,9.22-48.958l-0.909-14.727 l-14.726-0.908c-1.054-0.068-16.187-0.886-33.746,3.788V0.001H0v512h285.722v-1.154c4.727,0.759,9.53,1.154,14.397,1.154 c21.851,0,31.945-3.733,40.412-7.555c3.27-1.476,3.551-1.533,4.769-1.533c1.218,0,1.499,0.057,4.768,1.533 c8.466,3.823,18.56,7.555,40.412,7.555c40.622,0,76.936-26.832,99.631-73.619c14.115-29.096,21.888-63.464,21.889-96.774 C512.002,305.915,502.81,274.595,486.118,253.418z M379.176,205.117c7.175-7.174,17.907-10.802,27.3-12.518 c-1.715,9.403-5.343,20.13-12.515,27.303c-3.926,3.926-8.918,6.783-14.17,8.852c-0.206,0.08-0.408,0.161-0.613,0.242 c-4.169,1.588-8.485,2.689-12.548,3.43C368.226,223.376,371.699,212.596,379.176,205.117z M33.391,478.609V33.392h324.961v145.5 c-0.945,0.84-1.878,1.705-2.786,2.613c-3.619,3.619-6.671,7.559-9.274,11.656c-1.715-4.414-3.287-8.155-4.523-10.98l-30.593,13.38 c4.92,11.247,10.023,25.465,13.429,39.484c-8.019-4.154-17.363-8.259-27.582-10.5c-30.734-6.741-57.935-1.488-78.495,14.76 H106.022v33.391h86.634c-6.423,13.46-10.746,29.175-12.751,46.377h-73.883v33.391h72.867c0.777,15.594,3.203,31.262,7.143,46.376 h-80.01v33.391h91.621c0.919,2.073,1.863,4.127,2.845,6.15c7.648,15.766,16.848,29.256,27.233,40.228H33.391z M460.069,423.809 c-9.928,20.466-32.171,54.801-69.589,54.801c-16.491,0-21.9-2.442-26.671-4.597c-4.432-2.001-9.948-4.491-18.51-4.491 c-8.563,0-14.078,2.49-18.51,4.491c-4.773,2.155-10.18,4.597-26.672,4.597c-37.417,0-59.659-34.335-69.587-54.801 c-24.753-51.029-24.675-118.192,0.175-149.72c13.334-16.916,33.242-22.611,59.165-16.926c10.592,2.322,20.701,8.093,29.62,13.184 c9.7,5.537,17.361,9.909,25.809,9.909c8.447,0,16.109-4.373,25.808-9.909c8.921-5.091,19.031-10.862,29.62-13.184 c25.927-5.687,45.832,0.009,59.165,16.926C484.744,305.616,484.822,372.78,460.069,423.809z"/> </g> </g> </g>

</svg>