<?xml version="1.0" encoding="utf-8"?>
<!-- Svg Vector Icons : http://www.onlinewebfonts.com/icon -->
<!DOCTYPE svg PUBLIC "-//W3C//DTD SVG 1.1//EN" "http://www.w3.org/Graphics/SVG/1.1/DTD/svg11.dtd">
<svg version="1.1" xmlns="http://www.w3.org/2000/svg" xmlns:xlink="http://www.w3.org/1999/xlink" x="0px" y="0px" viewBox="0 0 256 256" enable-background="new 0 0 256 256" xml:space="preserve">
<metadata> Svg Vector Icons : http://www.onlinewebfonts.com/icon </metadata>
<g><g><g><path fill="" d="M44.4,2.2c-2,0.3-6.2,1.9-9.4,3.4c-9.9,4.8-19.6,16.1-23.8,27.5c-1.3,3.6-1.5,4.7-0.9,7.8c0.7,4.2,4,10.9,6.4,13.5c2.1,2.3,2.8,2.3,2.8,0.3c0-4.2,7.2-13.3,12.4-15.7c4.6-2.1,8.4-2.4,13.6-0.8c5.9,1.8,10,5.4,12.8,11c4.1,8.3,3.4,15.6-2.7,26.1c-1.9,3.2-4.2,7.8-5,10.3c-4.2,11.6-8.5,15.3-16.4,14.2c-2.5-0.3-5.1-1.7-9.4-5.3c-4.4-3.5-7.9,2.1-8.4,13.2c-0.3,6.6-0.2,6.9,1.9,11.1c4.6,9.2,13.7,16,22.1,16.6c7.2,0.5,11.5-1.1,16.5-6.2c5-5,8.3-11.6,12-23.4c3.2-10.4,4.7-13.6,10.6-23c2.7-4.4,5.8-9.6,6.8-11.7c7.8-15.3,8.1-32.7,0.9-46.2C80.9,13.2,69.6,4.6,57.3,2.5C51.4,1.4,49.7,1.4,44.4,2.2z"/><path fill="" d="M166.7,41c-23.5,2.5-42.4,15.9-49.9,35.4c-3.9,10-4,17.1-0.7,28.4c0.7,2.5,1.2,5.3,1,6.1c-0.2,0.8-2.9,5.5-6.1,10.3c-6.8,10.5-8.1,13.6-7.1,17.3c1.3,4.8,6,7.6,12.9,7.6h4.1l-2.1,2.3c-2.5,2.8-2.7,5.6-0.7,8.4c1.1,1.5,1.2,2.2,0.7,3.7c-1,2.6-0.8,6.5,0.3,8.2c0.9,1.3,0.9,1.7,0,3.5c-1.5,2.9-2,8.6-1,11.6c1.7,5.3,7.3,9.5,14.5,11.1c1.9,0.4,6.4,0.9,10,1.1c3.6,0.3,6.9,0.7,7.3,1c1.1,0.9,1.6,10.1,1,19.4c-0.3,5.3-0.3,8.8,0.1,9.8c1.3,2.9,2.7,3,20.3,1c9-1.1,16.7-2.1,16.9-2.3c1.1-1.1-4.4-25-8.2-35.9c-2.9-8.5-6-14.2-9.5-17.6c-5.7-5.6-17.5-8.8-34.2-9.6l-9.4-0.5l-0.7-4.1c-0.3-2.3-0.4-4.4-0.1-4.7c0.9-1,26.6,0,32.2,1.3c6.6,1.5,13.3,4.4,17.3,7.4c4.2,3.2,9.9,10.5,15.7,20c5.6,9.2,17.8,33.2,20.8,41.1c0.1,0.1,7.2-0.7,15.9-1.7c9.6-1.1,16.3-2.1,16.9-2.7c0.6-0.5,1.1-1.9,1.1-3.1c0-1.7-1.5-4.4-7.6-12.9c-20.1-27.9-23.2-34.6-22.3-47.9c0.5-6.8,2.2-11.9,6.5-19c4.4-7.2,6.9-12.7,9.1-20c1.7-5.5,1.8-7,1.9-17.4c0.1-10-0.1-12.1-1.5-16.7c-3.3-11.3-10.8-22.4-19.4-28.8c-7.9-5.8-19.4-9.9-31-11.1C174.2,40.2,174.3,40.2,166.7,41z"/><path fill="#" d="M34.7,47.3c-2.7,1.2-6.1,4.6-7.8,7.9c-1.8,3.5-1.3,5.9,2.1,11.2c3.3,5.1,3.4,7.2,0.6,12.7c-1.9,3.8-2,4.4-1.3,6.2c1.1,2.5,4.1,5.1,7,5.9c5.1,1.4,9.3-1.6,11.5-8.2c0.7-1.9,2.7-6.4,4.6-9.8c3.1-5.9,3.3-6.7,3.3-11.1c0-5.2-1.3-8.6-4.8-11.9C46.1,46.6,39.3,45.3,34.7,47.3z"/><path fill="" d="M48.3,143.5c-1.4,1.1-1.7,2.1-2.1,5.8C44.8,162.7,35,189,21.2,216.5c-5.4,10.8-7,15.5-7,20.8c0,4.9,1.3,8,4.5,10.6c4.2,3.5,8.1,4.1,26.9,4.1c14.3,0,17.9,0.2,24,1.4c10.5,2,15.5,1.1,21.1-4c6.9-6.2,7-16.2,0.2-25.7c-2-2.8-2.7-4.8-4-11c-0.9-4.2-2.1-12.2-2.7-17.9c-2.7-25.9-3.6-30.6-7-37.8c-3.6-7.6-9.8-12.2-19.3-14C51.4,141.9,50.3,141.9,48.3,143.5z"/></g></g></g>
</svg>