<!DOCTYPE svg PUBLIC "-//W3C//DTD SVG 1.1//EN" "http://www.w3.org/Graphics/SVG/1.1/DTD/svg11.dtd">

<!-- Uploaded to: SVG Repo, www.svgrepo.com, Transformed by: SVG Repo Mixer Tools -->
<svg fill="" height="800px" width="800px" version="1.1" id="Layer_1" xmlns="http://www.w3.org/2000/svg" xmlns:xlink="http://www.w3.org/1999/xlink" viewBox="0 0 496 496" xml:space="preserve" stroke="#ffffff" transform="matrix(1, 0, 0, 1, 0, 0)">

<g id="SVGRepo_bgCarrier" stroke-width="0"/>

<g id="SVGRepo_tracerCarrier" stroke-linecap="round" stroke-linejoin="round"/>

<g id="SVGRepo_iconCarrier"> <g> <g> <g> <path d="M432,432H320v-32.44c56.656-27.032,96-84.72,96-151.56v-60.44c25.4-21.808,40-53.144,40-86.792V0h-16v100.776 c0,23.96-8.656,46.544-24,64.28V96h-8c-32.384,0-62.448-16.088-80.408-43.032L324.28,48h-15.592L293.36,63.328 C272.288,84.4,244.272,96,214.48,96H80v69.056c-15.344-17.736-24-40.32-24-64.28V0H40v100.776c0,33.648,14.6,64.976,40,86.792 V248c0,66.84,39.344,124.528,96,151.56V432H64c-35.288,0-64,28.712-64,64h16c0-26.472,21.528-48,48-48h112.64 c3.904,27.088,27.208,48,55.36,48h32c28.152,0,51.456-20.912,55.36-48H432c26.472,0,48,21.528,48,48h16 C496,460.712,467.288,432,432,432z M400,224h-8.552c0.328-2.624,0.552-5.288,0.552-8c0-2.72-0.312-5.36-0.64-8H400V224z M96,112 h118.48c34.072,0,66.104-13.264,90.192-37.36L315.312,64h0.448c19.544,27.92,50.456,45.336,84.24,47.72V192h-12.824 c-6.96-17.24-21.096-30.952-39.464-36.848L345.632,144H384v-16H270.528c-3.312-9.288-12.112-16-22.528-16 s-19.216,6.712-22.528,16H112v16h38.368l-2.08,11.152c-18.376,5.896-32.504,19.608-39.464,36.848H96V112z M210.872,144h14.592 c3.312,9.296,12.112,16,22.528,16c10.416,0,19.216-6.704,22.528-16h14.592l-12.48,40c-4.296,7.416-7.024,15.584-8.104,24h-33.064 c-1.072-8.416-3.808-16.584-8.112-24L210.872,144z M216,216c0,26.472-21.528,48-48,48s-48-21.528-48-48 c0-22.4,15.24-41.6,37.064-46.696l5.088-1.184l4.496-24.12h27.464l14.248,45.648l0.784,1.736 C213.624,198.856,216,207.368,216,216z M240,136c0-4.416,3.584-8,8-8s8,3.584,8,8s-3.584,8-8,8C243.584,144,240,140.416,240,136z M286.856,191.384L301.864,144h27.488l4.504,24.12l5.088,1.184C360.76,174.4,376,193.6,376,216c0,26.472-21.528,48-48,48 s-48-21.528-48-48C280,207.368,282.376,198.856,286.856,191.384z M96,208h8.64c-0.328,2.64-0.64,5.28-0.64,8 c0,2.712,0.224,5.376,0.552,8H96V208z M304,440c0,22.056-17.944,40-40,40h-32c-22.056,0-40-17.944-40-40v-33.8 c17.544,6.232,36.344,9.8,56,9.8s38.456-3.568,56-9.8V440z M248,400c-83.816,0-152-68.184-152-152v-8h12.712 c9.52,23.424,32.488,40,59.288,40c32.576,0,59.488-24.48,63.448-56h33.112c3.96,31.52,30.872,56,63.448,56 c26.8,0,49.768-16.576,59.288-40H400v8C400,331.816,331.816,400,248,400z"/> <path d="M168,176c-22.056,0-40,17.944-40,40c0,22.056,17.944,40,40,40c22.056,0,40-17.944,40-40C208,193.944,190.056,176,168,176 z M168,240c-13.232,0-24-10.768-24-24s10.768-24,24-24s24,10.768,24,24S181.232,240,168,240z"/> <path d="M328,256c22.056,0,40-17.944,40-40c0-22.056-17.944-40-40-40c-22.056,0-40,17.944-40,40C288,238.056,305.944,256,328,256 z M328,192c13.232,0,24,10.768,24,24s-10.768,24-24,24s-24-10.768-24-24S314.768,192,328,192z"/> </g> </g> </g> </g>

</svg>