<!DOCTYPE svg PUBLIC "-//W3C//DTD SVG 1.1//EN" "http://www.w3.org/Graphics/SVG/1.1/DTD/svg11.dtd">

<!-- Uploaded to: SVG Repo, www.svgrepo.com, Transformed by: SVG Repo Mixer Tools -->
<svg fill="" version="1.1" id="Capa_1" xmlns="http://www.w3.org/2000/svg" xmlns:xlink="http://www.w3.org/1999/xlink" width="800px" height="800px" viewBox="0 0 36.447 36.447" xml:space="preserve" stroke="#ffffff">

<g id="SVGRepo_bgCarrier" stroke-width="0"/>

<g id="SVGRepo_tracerCarrier" stroke-linecap="round" stroke-linejoin="round"/>

<g id="SVGRepo_iconCarrier"> <g> <g> <path d="M30.224,3.948h-1.098V2.75c0-1.516-1.197-2.75-2.67-2.75c-1.474,0-2.67,1.234-2.67,2.75v1.197h-2.74V2.75 c0-1.516-1.197-2.75-2.67-2.75c-1.473,0-2.67,1.234-2.67,2.75v1.197h-2.74V2.75c0-1.516-1.197-2.75-2.67-2.75 c-1.473,0-2.67,1.234-2.67,2.75v1.197H6.224c-2.343,0-4.25,1.907-4.25,4.25v24c0,2.343,1.907,4.25,4.25,4.25h24 c2.344,0,4.25-1.907,4.25-4.25v-24C34.474,5.854,32.567,3.948,30.224,3.948z M25.286,2.75c0-0.689,0.525-1.25,1.17-1.25 c0.646,0,1.17,0.561,1.17,1.25v4.895c0,0.689-0.524,1.25-1.17,1.25c-0.645,0-1.17-0.561-1.17-1.25V2.75z M17.206,2.75 c0-0.689,0.525-1.25,1.17-1.25s1.17,0.561,1.17,1.25v4.895c0,0.689-0.525,1.25-1.17,1.25s-1.17-0.561-1.17-1.25V2.75z M9.125,2.75 c0-0.689,0.525-1.25,1.17-1.25s1.17,0.561,1.17,1.25v4.895c0,0.689-0.525,1.25-1.17,1.25s-1.17-0.561-1.17-1.25V2.75z M31.974,32.198c0,0.965-0.785,1.75-1.75,1.75h-24c-0.965,0-1.75-0.785-1.75-1.75v-22h27.5V32.198z"/> <path d="M13.528,30.762c0.518,0.725,1.407,1.123,2.503,1.123c0.388,0,0.794-0.056,1.207-0.15c0.243,0.041,0.489,0.07,0.74,0.07 c3.366,0,6.119-4.062,6.375-7.502c0.323-0.49,0.518-1.074,0.518-1.699c0-1.723-1.402-3.125-3.125-3.125 c-0.742,0-1.416,0.271-1.951,0.705c-0.228-0.178-0.396-0.381-0.475-0.627c1.416-0.543,2.424-1.903,2.424-3.509 c0-2.08-1.687-3.766-3.766-3.766c-2.08,0-3.767,1.686-3.767,3.766c0,1.588,0.987,2.94,2.378,3.494 c-0.68,1.23-5.011,1.439-5.011,4.25c0,1.59,0.583,3.371,1.545,4.85C12.981,29.426,13.103,30.165,13.528,30.762z M16.402,25.374 c1.214-0.868,2.524-1.293,3.587-1.272c-0.347-0.405-0.562-0.924-0.562-1.498c0-1.279,1.037-2.317,2.316-2.317 c1.28,0,2.318,1.038,2.318,2.317c0,1.264-1.013,2.285-2.27,2.312c0.82,1.227-0.166,3.393-2.238,4.872 c-2.095,1.496-4.499,1.722-5.37,0.502C13.312,29.071,14.307,26.87,16.402,25.374z"/> <path d="M20.302,25.898c-0.67-0.588-1.68,0.543-1.68,0.543s-0.246-1.357-1.018-0.965c-0.771,0.393-0.245,1.959,0.807,2.94 C20.235,27.539,20.973,26.487,20.302,25.898z"/> </g> </g> </g>

</svg>